<?xml version="1.0" encoding="UTF-8" standalone="no"?>
<!-- Created with Inkscape (http://www.inkscape.org/) -->

<svg
   xmlns:dc="http://purl.org/dc/elements/1.1/"
   xmlns:cc="http://creativecommons.org/ns#"
   xmlns:rdf="http://www.w3.org/1999/02/22-rdf-syntax-ns#"
   xmlns:svg="http://www.w3.org/2000/svg"
   xmlns="http://www.w3.org/2000/svg"
   version="1.1"
   width="744.09448"
   height="1052.3622"
   id="svg2">
  <defs
     id="defs4" />
  <metadata
     id="metadata7">
    <rdf:RDF>
      <cc:Work
         rdf:about="">
        <dc:format>image/svg+xml</dc:format>
        <dc:type
           rdf:resource="http://purl.org/dc/dcmitype/StillImage" />
        <dc:title></dc:title>
      </cc:Work>
    </rdf:RDF>
  </metadata>
  <g
     id="layer1">
    <path
       d="M 345.78168,804.76444 C 200.81007,792.2406 84.008147,695.47399 52.992447,562.19801 c -7.12327,-30.609 -7.12327,-89.06265 0,-119.67165 31.16976,-133.93797 148.802393,-230.7186 294.689613,-242.45185 57.33503,-4.61127 115.54076,5.43992 168.46653,29.09146 92.37989,41.28283 157.36891,118.56119 179.43039,213.36039 7.12325,30.609 7.12325,89.06265 0,119.67165 -22.08109,94.88346 -86.88777,171.95121 -179.43039,213.37765 -51.73793,23.16031 -114.89477,33.98091 -170.36691,29.18878 z m 2.8019,-32.51819 c 4.83406,-5.39507 2.90662,-17.39296 -5.83216,-36.30398 -12.57927,-27.22206 -13.85915,-52.62718 -3.71417,-73.72575 3.82534,-7.95558 28.81278,-35.71744 35.50319,-39.44524 4.40925,-2.45676 35.64849,31.68294 40.12418,43.84954 8.56613,23.28606 6.65967,43.20455 -6.86159,71.68932 -8.40144,17.69901 -9.56154,27.66675 -3.89502,33.46639 5.22918,5.352 15.45815,4.89938 19.85587,-0.87863 11.08636,-14.5659 19.10641,-60.37094 15.02299,-85.80099 -3.43651,-21.40141 -10.48716,-33.42599 -33.34429,-56.86725 l -19.17914,-19.66929 9.468,-13.46026 c 12.69346,-18.04574 20.58583,-36.80466 21.89086,-52.031 1.53899,-17.9561 -1.73217,-27.41039 -15.70816,-45.39978 -2.28147,-2.93663 -2.27685,-4.36338 0.0236,-7.3 9.42418,-12.03032 12.34892,-22.0494 11.07391,-37.93518 -1.52989,-19.06149 -6.32218,-34.3538 -14.08707,-44.95211 -4.08669,-5.57791 -5.07942,-8.54246 -3.38589,-10.11108 1.31782,-1.22063 17.34114,-9.86643 35.60736,-19.2129 24.98408,-12.78387 33.38945,-18.10425 33.9304,-21.47708 0.51706,-3.22391 -0.90632,-5.0559 -5.06653,-6.52095 -7.60216,-2.67717 -7.56647,-9.41491 0.13398,-25.30845 6.09947,-12.58903 6.17115,-14.31542 1.67184,-40.26873 -0.77851,-4.49078 -4.07173,-12.86211 -7.31825,-18.60295 -5.11893,-9.05186 -8.14536,-11.52479 -22.7912,-18.62301 -21.0824,-10.21774 -36.48397,-14.07286 -55.8417,-13.97755 -20.27865,0.0998 -36.46475,4.16156 -56.88495,14.27463 -15.00384,7.43065 -17.60869,9.61787 -21.93702,18.42003 -2.70136,5.4935 -6.0359,14.21175 -7.41013,19.3739 -5.23589,19.66814 -5.00494,23.70684 2.25988,39.51979 3.82703,8.33006 6.95822,16.03877 6.95822,17.13046 0,1.09169 -3.20786,4.69874 -7.12859,8.01565 -5.89042,4.98326 -6.64463,6.57089 -4.34229,9.14045 1.53248,1.71033 15.78157,9.7425 31.66467,17.84926 15.88311,8.10677 31.13019,16.42851 33.88242,18.49276 l 5.00407,3.75319 -6.86106,11.35636 c -6.82324,11.29381 -13.98373,37.26446 -13.88932,50.37557 0.0522,7.25942 6.96849,23.27353 12.49371,28.92853 2.89799,2.96607 2.78637,3.96096 -0.94019,8.38038 -7.21711,8.55889 -13.15668,21.28715 -14.55653,31.19404 -2.60519,18.43703 6.67706,45.29171 23.5226,68.05365 3.54887,4.79524 6.45246,9.85748 6.45246,11.2494 0,1.39193 -7.95211,10.20296 -17.67134,19.58009 -11.83001,11.41357 -20.20381,21.81623 -25.33265,31.47036 -7.62047,14.34412 -7.66103,14.57695 -7.60831,43.6584 0.0437,24.14129 0.95928,32.20028 5.25251,46.23613 2.85973,9.34932 7.1819,18.96968 9.60483,21.37858 5.23945,5.20911 15.95374,5.75863 20.1859,1.0353 z m 21.36716,-180.71978 c -11.60674,-16.44141 -16.82329,-37.13235 -12.75716,-50.60016 3.00727,-9.9606 14.61719,-22.42155 20.00566,-21.47209 2.11301,0.37232 7.23212,5.3607 11.3758,11.08532 6.96874,9.62747 7.47086,11.42548 6.69305,23.9655 -0.60058,9.68268 -2.88076,17.58061 -7.97859,27.63572 -7.60226,14.99489 -11.78183,17.25734 -17.33876,9.38571 z m 0.46975,-119.92857 c -12.19595,-12.95049 -13.09482,-41.61025 -1.70596,-54.39205 6.07583,-6.81893 11.50049,-5.00386 17.39309,5.81971 8.14311,14.9573 6.14478,37.06439 -4.27937,47.34204 -5.92922,5.84586 -6.95678,5.95667 -11.40776,1.2303 z m -2.89015,-89.40108 c -2.47697,-1.77799 -11.26801,-6.41763 -19.53564,-10.31031 -20.51443,-9.65891 -21.69595,-12.20082 -4.98534,-10.72555 7.29412,0.64395 15.28863,1.47016 17.7656,1.83602 3.94278,0.58237 4.50359,-0.50354 4.50359,-8.72051 0,-9.13231 5.9026,-20.85714 10.50006,-20.85714 1.15544,0 4.50405,2.58107 7.44134,5.73571 4.57678,4.91546 5.1545,7.19962 4.0398,15.97229 -1.2808,10.07959 -1.21759,10.21104 4.12157,8.57115 9.005,-2.76583 32.03407,-3.83984 30.41853,-1.41863 -1.76563,2.64617 -43.83851,23.30751 -47.27495,23.216 -1.37004,-0.0365 -4.51759,-1.52105 -6.99456,-3.29903 z m -23.64381,-30.00606 c 0,-1.14715 2.47345,-2.08572 5.49657,-2.08572 3.02313,0 6.12285,0.93857 6.88828,2.08572 0.81195,1.21685 -1.47781,2.08571 -5.49658,2.08571 -3.78855,0 -6.88827,-0.93857 -6.88827,-2.08571 z m 51.7912,0 c 0,-1.14715 3.03992,-2.08572 6.75538,-2.08572 3.71546,0 6.75537,0.93857 6.75537,2.08572 0,1.14714 -3.03991,2.08571 -6.75537,2.08571 -3.71546,0 -6.75538,-0.93857 -6.75538,-2.08571 z m -77.27827,-7.0152 c -3.40883,-4.81883 -3.45706,-5.49909 -0.38978,-5.49909 3.78544,0 6.57307,4.62589 5.15768,8.55886 -0.4828,1.34163 -2.62838,-0.0353 -4.7679,-3.05977 z m 110.32359,3.43476 c -1.82429,-2.73406 3.81248,-9.73015 7.00915,-8.69942 1.61647,0.52122 1.06118,2.57646 -1.56299,5.78501 -2.2386,2.73712 -4.68938,4.0486 -5.44616,2.91441 z m -71.71828,-13.76113 c 2.69285,-2.65501 4.89609,-6.87858 4.89609,-9.38572 0,-4.75189 4.30365,-6.51226 4.77038,-1.95129 0.81035,7.91866 -4.87304,16.16429 -11.14137,16.16429 -2.63559,0 -2.2969,-1.10851 1.4749,-4.82728 z m 35.06942,3.23106 c -4.03735,-2.49699 -8.09742,-11.0142 -6.77359,-14.20962 1.96701,-4.74787 5.87355,-3.42211 5.87355,1.99331 0,2.7274 1.51996,6.12732 3.37769,7.55539 5.72691,4.40236 3.5935,8.41573 -2.47765,4.66092 z m -75.20916,-8.83235 c 0,-1.14714 1.51996,-2.08572 3.37768,-2.08572 1.85773,0 3.37769,0.93858 3.37769,2.08572 0,1.14714 -1.51996,2.08571 -3.37769,2.08571 -1.85772,0 -3.37768,-0.93857 -3.37768,-2.08571 z m 112.58958,0 c 0,-1.14714 1.01331,-2.08572 2.25179,-2.08572 1.23849,0 2.25179,0.93858 2.25179,2.08572 0,1.14714 -1.0133,2.08571 -2.25179,2.08571 -1.23848,0 -2.25179,-0.93857 -2.25179,-2.08571 z m -91.88564,-4.6002 c -3.95793,-3.666 -3.28492,-5.82837 1.81397,-5.82837 4.80337,0 5.52014,1.54527 2.65511,5.72409 -1.37942,2.01201 -2.38415,2.03545 -4.46908,0.10428 z m 71.61951,-2.6998 c 0,-1.72072 1.51996,-3.12857 3.37769,-3.12857 1.85773,0 3.37769,1.40785 3.37769,3.12857 0,1.72071 -1.51996,3.12857 -3.37769,3.12857 -1.85773,0 -3.37769,-1.40786 -3.37769,-3.12857 z M 297.7248,302.13361 c 0.76543,-1.14714 2.79204,-2.08571 4.50358,-2.08571 1.71154,0 3.73815,0.93857 4.50358,2.08571 0.79243,1.18761 -1.14681,2.08572 -4.50358,2.08572 -3.35677,0 -5.29601,-0.89811 -4.50358,-2.08572 z m 149.07676,-0.21613 c 1.78105,-1.64969 3.66308,-1.66765 6.64278,-0.0634 3.64482,1.96231 3.33826,2.24625 -2.48512,2.30185 -4.84435,0.0463 -5.96997,-0.55977 -4.15766,-2.23842 z M 316.30208,283.89193 c -5.66898,-1.20211 -5.12121,-8.8726 0.63361,-8.8726 4.9364,0 8.54278,5.5326 5.29486,8.12288 -1.09331,0.87193 -3.76112,1.20931 -5.92847,0.74972 z m 112.59926,-1.05118 c -1.69057,-4.25807 0.63823,-7.82142 5.11162,-7.82142 6.152,0 8.01367,4.38093 3.23656,7.61641 -5.15698,3.49276 -7.02464,3.53862 -8.34818,0.20502 z"
       id="path3018"
       style="fill:#000000" />
  </g>
</svg>
