<?xml version="1.0" encoding="UTF-8" standalone="no"?>
<!-- Created with Inkscape (http://www.inkscape.org/) -->

<svg
   xmlns:dc="http://purl.org/dc/elements/1.1/"
   xmlns:cc="http://creativecommons.org/ns#"
   xmlns:rdf="http://www.w3.org/1999/02/22-rdf-syntax-ns#"
   xmlns:svg="http://www.w3.org/2000/svg"
   xmlns="http://www.w3.org/2000/svg"
   xmlns:sodipodi="http://sodipodi.sourceforge.net/DTD/sodipodi-0.dtd"
   xmlns:inkscape="http://www.inkscape.org/namespaces/inkscape"
   id="svg3051"
   version="1.1"
   inkscape:version="0.48.4 r9939"
   width="600"
   height="600"
   sodipodi:docname="brain-butterfly.jpg">
  <metadata
     id="metadata3057">
    <rdf:RDF>
      <cc:Work
         rdf:about="">
        <dc:format>image/svg+xml</dc:format>
        <dc:type
           rdf:resource="http://purl.org/dc/dcmitype/StillImage" />
        <dc:title></dc:title>
      </cc:Work>
    </rdf:RDF>
  </metadata>
  <defs
     id="defs3055" />
  <sodipodi:namedview
     pagecolor="#ffffff"
     bordercolor="#666666"
     borderopacity="1"
     objecttolerance="10"
     gridtolerance="10"
     guidetolerance="10"
     inkscape:pageopacity="0"
     inkscape:pageshadow="2"
     inkscape:window-width="1535"
     inkscape:window-height="876"
     id="namedview3053"
     showgrid="false"
     inkscape:zoom="1.5733333"
     inkscape:cx="179.9814"
     inkscape:cy="339.80417"
     inkscape:window-x="65"
     inkscape:window-y="24"
     inkscape:window-maximized="1"
     inkscape:current-layer="svg3051" />
  <path
     style="fill:#000000"
     d="m 239.19426,391.05747 c -2.91879,-0.73079 -6.07183,-3.38652 -6.16246,-5.1905 -0.0175,-0.34817 -1.9285,0.0204 -4.24668,0.81911 -3.40022,1.17147 -5.7159,1.25014 -11.98074,0.40702 -4.27121,-0.57481 -8.43137,-0.78973 -9.24478,-0.4776 -2.00919,0.771 -10.71889,-1.18253 -16.00145,-3.58901 -4.33533,-1.97497 -6.2323,-4.99948 -6.2323,-8.56893 0,-1.54884 -0.38502,-0.57111 -3.41292,-0.57608 -4.90157,-0.008 -7.56044,-1.54766 -15.42001,-8.57614 -6.5005,-5.81311 -8.09662,-9.30164 -5.4615,-11.93676 0.70856,-0.70856 0.13388,-0.89969 -1.83587,-0.61059 -3.62515,0.53206 -7.83045,-4.06604 -8.7227,-9.53743 -0.3337,-2.04631 -1.21808,-5.29556 -1.96529,-7.22056 -0.74722,-1.925 -1.59221,-5.20849 -1.87776,-7.29664 -0.45026,-3.29255 -0.20022,-3.94197 1.88326,-4.89126 2.20268,-1.00361 2.28124,-1.26769 0.9447,-3.17587 C 148.65599,319.49154 148,317.57826 148,316.38448 148,314.16926 146.27507,313 143.00711,313 c -1.00613,0 -3.04183,-1.44098 -4.52378,-3.20218 -2.41291,-2.86758 -2.64963,-3.82206 -2.26537,-9.13438 0.28183,-3.89615 0.97898,-6.33428 2.03123,-7.1037 1.45075,-1.06081 1.42572,-1.28167 -0.26488,-2.33746 -4.42077,-2.76082 -7.09987,-9.68447 -8.10489,-20.94562 -1.2988,-14.55298 -3.15078,-20.8485 -6.66814,-22.6674 C 120.05045,245.97473 112.18436,234.04385 108.9642,226 c -2.3692,-5.91815 -4.35056,-22.3399 -4.17361,-34.59137 0.12603,-8.72608 2.91931,-17.50948 6.00919,-18.89576 1.21012,-0.54292 2.20022,-1.53969 2.20022,-2.21504 0,-0.67535 3.50276,-6.08114 7.7839,-12.01287 4.28115,-5.93173 10.68563,-15.64102 14.23219,-21.5762 3.54655,-5.93518 8.27454,-12.86664 10.50663,-15.40325 l 4.05836,-4.612 8.13699,-0.47105 c 10.2843,-0.59535 15.39448,1.52674 19.53193,8.11098 1.5125,2.40695 2.75,4.81365 2.75,5.34822 0,0.53458 1.31663,0.77871 2.92585,0.54253 5.15634,-0.75679 7.68277,2.17861 11.21253,13.02757 3.43972,10.57221 6.50381,15.02706 14.05105,20.42866 l 4.44376,3.18043 -0.42025,-2.86339 c -0.24072,-1.64007 0.26487,-3.84154 1.1834,-5.15293 0.88201,-1.25925 1.63974,-4.32691 1.68383,-6.81704 0.0441,-2.49012 0.8316,-6.77145 1.75,-9.51406 1.39226,-4.15768 2.41784,-5.40437 6.16983,-7.5 3.76315,-2.10187 5.81389,-2.51343 12.52403,-2.51343 7.34265,0 8.27265,0.23054 10.95184,2.71482 3.10128,2.87567 4.30809,3.00845 2.79669,0.30773 -2.82929,-5.05565 3.24327,-13.6342 10.92026,-15.42678 5.78754,-1.35139 22.77327,-1.43936 26.20215,-0.1357 5.63898,2.14393 8.60766,8.6373 5.41055,11.83441 -0.92598,0.92598 -0.69213,1.6625 1.0403,3.2765 1.22913,1.14511 2.4979,3.3976 2.81948,5.00552 0.76544,3.82719 1.92622,3.71592 2.72158,-0.26088 0.35028,-1.75141 1.29504,-3.91165 2.09947,-4.80053 1.17127,-1.29424 1.25116,-2.38188 0.40109,-5.46057 -0.90695,-3.28471 -0.7804,-4.2237 0.8692,-6.44947 1.06188,-1.43278 3.46354,-3.14215 5.33702,-3.79861 3.54196,-1.24108 23.2989,-1.54814 28.18942,-0.43813 4.18714,0.95037 9.97999,8.75262 9.50693,12.80466 -0.40069,3.43221 0.16347,3.4222 4.0433,-0.0717 3.3549,-3.02122 14.81151,-2.97248 21.27317,0.0905 5.81924,2.75847 7.9401,6.87671 9.3542,18.16383 0.23122,1.84555 1.12216,4.13098 1.97986,5.07874 2.06001,2.27629 1.97791,5.9191 -0.19054,8.45376 -0.9625,1.12504 0.61533,0.1037 3.50629,-2.26965 10.38981,-8.52958 12.29997,-11.79684 16.25015,-27.79541 1.23882,-5.01734 6.21293,-9.73574 9.4159,-8.93185 1.74398,0.43771 2.60963,-0.43404 5.03953,-5.07508 4.04761,-7.73085 8.49722,-9.72648 20.30502,-9.10673 l 8.44917,0.44347 3.64197,4.16634 c 4.63893,5.30685 6.83846,8.35161 10.96664,15.18085 4.16576,6.89139 9.95162,14.58502 17.39743,23.13384 3.17784,3.64861 5.7779,7.33079 5.7779,8.18261 0,0.85183 0.90755,1.83682 2.01677,2.18887 1.10922,0.35206 2.89936,2.37012 3.97809,4.4846 2.35654,4.6192 4.45327,17.11226 3.49717,20.83737 -0.3773,1.46999 -0.62926,6.63024 -0.55992,11.46722 0.0897,6.25856 -0.45798,10.72807 -1.89937,15.5 -2.62443,8.68849 -9.27691,20.58681 -13.08408,23.40157 C 471.9421,242.1583 470,249.02821 470,260.23872 c 0,11.35867 -1.45987,17.04621 -5.4656,21.29352 -2.84744,3.01917 -3.02797,3.54566 -1.6785,4.89513 0.88894,0.88893 1.6938,4.02404 1.95299,7.60731 0.4026,5.56588 0.2057,6.3407 -2.2673,8.92195 -1.4895,1.5547 -4.05052,3.0952 -5.69116,3.42332 -1.64064,0.32813 -2.74273,0.98533 -2.4491,1.46044 0.29364,0.47511 -0.28513,2.47028 -1.28614,4.43371 -1.77798,3.48741 -1.77519,3.58159 0.12084,4.07741 1.7327,0.45311 1.88772,1.18544 1.44533,6.82804 -1.13154,14.43282 -5.55797,24.45956 -10.39018,23.53582 -1.74333,-0.33326 -2.13477,-0.15892 -1.367,0.60885 2.72097,2.72097 1.0064,6.1509 -6.53797,13.07891 -6.76475,6.21208 -8.01118,6.95055 -12.45172,7.37723 -4.53282,0.43554 -5.38517,-3.02019 -5.39923,-0.61091 -0.0213,3.64915 -0.33198,8.21834 -6.03526,11.05639 -6.36175,3.16572 -9.88132,4.14992 -15.5,4.33439 -2.475,0.0813 -7.70706,0.49907 -11.62679,0.92848 -5.50369,0.60293 -7.79888,0.44546 -10.07783,-0.69143 -2.86048,-1.42699 -2.98934,-1.38565 -4.199,1.34716 -1.62565,3.67259 -7.23905,5.23322 -16.59638,4.61408 -7.43223,-0.49176 -12.58319,-2.68706 -17.83928,-7.60296 -4.48186,-4.1918 -5.79076,-7.71853 -7.26491,-19.57483 -2.58939,-20.82596 -2.05026,-22.92411 7.223,-28.11001 3.46129,-1.93566 6.54458,-3.92603 6.85175,-4.42304 0.98573,-1.59495 -3.36104,-2.22767 -10.76418,-1.56684 -5.13614,0.45847 -8.59505,0.21539 -12.04023,-0.84613 l -6.40686,-2.38826 2.25224,5.8374 -0.21964,4.03968 -2.83723,2.4599 c -2.67979,2.32341 -4.26431,1.38714 -7.99389,0.15931 -3.68456,-1.213 -4.75258,-1.20438 -7.93278,0.0641 -3.01041,1.20071 -4.40167,1.24806 -7.69343,0.26182 l -2.55781,-1.87811 -1.1187,-4.21534 c -1.2269,-4.62303 2.6411,-5.77377 0.20147,-5.18474 -1.375,0.33198 -5.84962,1.86692 -7.05975,2.31236 -1.21012,0.44545 -5.81327,0.80196 -10.22922,0.79226 -12.14727,-0.0267 -12.904,1.0896 -3.79156,5.59321 10.56081,5.21943 11.48174,7.98169 9.35689,28.06505 -1.47516,13.94271 -2.78193,17.70895 -7.53099,21.70502 -6.87411,5.78418 -19.59122,8.88214 -27.91063,6.79918 z m 18.81732,-4.56346 c 4.38039,-2.26518 9.86731,-7.36544 11.71825,-10.89245 0.89522,-1.70586 1.72738,-5.92214 1.84923,-9.36952 0.12186,-3.44738 0.53155,-9.35464 0.91042,-13.12724 0.93273,-9.28778 -0.52636,-11.98401 -8.7293,-16.13069 C 256.78086,333.44597 254,331.30017 254,329.44284 c 0,-2.05432 5.79648,-3.44249 14.39922,-3.44842 10.03688,-0.007 15.00759,-1.29709 19.9012,-5.16548 6.19031,-4.89343 9.35806,-1.75011 3.69958,3.67106 -4.02126,3.85261 -4.25083,9.14796 -0.43808,10.1049 1.57233,0.39463 4.07423,-0.0389 6.47703,-1.12246 2.75045,-1.24029 4.29378,-1.46025 5.18807,-0.73943 2.32371,1.87295 7.21321,2.38679 9.16075,0.96271 2.47722,-1.81138 1.34392,-7.18019 -1.97467,-9.35461 C 307.92798,322.72279 306.99797,318 309.16245,318 c 0.63935,0 3.38243,1.42455 6.09573,3.16568 4.84732,3.11051 5.15378,3.16724 17.58755,3.25563 13.19502,0.0938 15.15427,0.5398 15.15427,3.44965 0,1.985 -3.12194,4.48655 -10.73274,8.59997 -6.5606,3.54581 -6.99615,5.35261 -5.28047,21.90511 1.6688,16.10025 4.0699,20.52562 13.89106,25.60208 3.58596,1.85355 13.08687,2.86399 17.08285,1.81679 4.17894,-1.09514 7.31085,-4.36397 6.53208,-6.81766 -1.08115,-3.40641 1.46421,-11.13466 4.64633,-14.1072 3.48818,-3.25845 4.40552,-3.4991 5.22252,-1.37005 0.36128,0.94149 1.89047,1.5 4.10699,1.5 2.35179,0 3.53138,0.46531 3.53138,1.39301 0,1.78117 -2.18979,2.60699 -6.91281,2.60699 -2.89368,0 -4.00164,0.51343 -4.85536,2.25 -2.24921,4.57517 -2.3048,6.37399 -0.25431,8.22966 1.75893,1.59181 2.96068,1.71472 9.76414,0.99868 4.26709,-0.4491 9.55834,-0.89341 11.75834,-0.98735 5.3236,-0.22732 12.25189,-2.21586 16.25,-4.66403 2.86533,-1.75453 3.25,-2.50607 3.25,-6.3495 0,-5.22572 -4.68674,-9.97728 4.74795,-3.97144 1.8037,1.14818 3.46681,1.35246 4.91391,0.80775 C 428.6675,364.18239 441,352.15946 441,350.36066 c 0,-0.81022 -2.025,-2.36887 -4.5,-3.46368 -8.03223,-3.55304 -4.83305,-6.20341 4.79107,-3.96917 3.49162,0.81058 3.95976,0.65194 5.92655,-2.00829 1.17451,-1.58861 2.31132,-4.77506 2.52623,-7.08099 0.21491,-2.30594 1.03547,-5.11307 1.82345,-6.23808 1.61966,-2.31239 1.35351,-7.18415 -0.0723,-8.06538 -0.51879,-0.32063 -3.39084,1.25897 -7.06896,3.51023 -4.98321,3.05006 -6.97273,3.80297 -7.80674,2.95438 -1.17982,-1.20044 -1.26634,-1.10656 8.80138,-9.54934 3.79391,-3.18156 4.96573,-4.89033 5.46654,-7.97141 0.55973,-3.44354 1.07602,-4.04719 4.2339,-4.95035 6.0845,-1.74017 7.15172,-3.22551 6.6515,-9.25751 -0.60298,-7.27114 -2.31256,-8.49572 -10.77257,-7.71646 -8.207,0.75596 -15.51812,4.02669 -20.69969,9.2603 -2.22278,2.2451 -5.33717,4.36134 -6.92086,4.70276 -5.6178,1.21108 -7.27599,2.43971 -11.31014,8.38026 C 408.26028,314.50698 396.9794,324 394.12301,324 c -1.20527,0 -1.55368,-3.236 -0.46556,-4.32412 0.36159,-0.36159 0.84923,-3.24909 1.08364,-6.41666 0.23441,-3.16757 0.60464,-5.93781 0.82274,-6.15608 0.2181,-0.21827 2.04279,-0.44327 4.05486,-0.5 2.96232,-0.0835 4.23899,-0.82029 6.7105,-3.87268 4.00134,-4.94178 4.01311,-10.90826 0.042,-21.30923 -2.27215,-5.95116 -3.62901,-8.02087 -6.61486,-10.09007 -3.58857,-2.48687 -4.84509,-5.54026 -2.80004,-6.80417 0.52598,-0.32507 0.7305,-1.17953 0.45449,-1.8988 -0.27601,-0.71927 0.11348,-1.81843 0.86553,-2.44257 1.07396,-0.89131 2.21026,-0.27325 5.29551,2.88035 3.21988,3.29123 4.75125,6.38463 8.49327,17.1567 2.51083,7.22784 5.3173,13.61598 6.23661,14.19586 1.27595,0.80485 2.74725,0.46667 6.21782,-1.42922 C 429.52955,290.25249 438,282.39455 438,280.48366 c 0,-0.66767 -0.9,-2.35811 -2,-3.75653 -2.23073,-2.83591 -2.50135,-4.29924 -0.9701,-5.24561 1.07666,-0.66541 7.71328,2.89102 14.37014,7.70066 10.84393,7.83485 18.00175,-0.34626 17.6578,-20.18218 -0.0916,-5.28411 0.40829,-10.07396 1.32134,-12.66018 1.4637,-4.14597 1.45959,-4.16354 -1.20523,-5.14297 -1.47067,-0.54053 -5.25959,-1.55237 -8.41982,-2.24854 -5.22361,-1.15071 -5.93018,-1.09896 -7.77363,0.56934 -2.98344,2.69997 -4.89395,0.5254 -2.6061,-2.9663 2.15077,-3.28249 6.80414,-3.38424 15.308,-0.33474 8.58632,3.07907 10.58998,2.21268 15.96372,-6.90275 5.72292,-9.70773 7.53655,-15.31237 8.11605,-25.08094 0.42261,-7.12387 0.27952,-8.18615 -1.03472,-7.68183 -2.84859,1.09311 -3.13668,-1.77755 -0.37992,-3.78571 C 488.567,191.14861 489,190.06616 489,186.13452 c 0,-5.86873 -2.08492,-14.08899 -4.5135,-17.79547 l -1.84773,-2.82 -1.35184,3.31299 c -0.74352,1.82214 -3.92219,5.70655 -4.59184,5.47351 -1.24096,-0.43188 1.20361,-2.67912 2.32248,-8.27439 0.56793,-2.8401 -0.50713,-5.63626 -6.73189,-12.83973 -3.80225,-4.40009 -9.69577,-12.2057 -13.09669,-17.3458 -7.39861,-11.18214 -11.4063,-16.70905 -14.66859,-20.22912 -2.21665,-2.39181 -3.09457,-2.61619 -10.22265,-2.61277 -12.83171,0.006 -16.83418,4.13857 -19.21056,19.83425 C 413.92843,140.49138 412.62276,144 410.93343,144 c -1.93711,0 -2.13637,-3.08338 -0.51885,-8.02866 1.25949,-3.85066 1.37993,-5.48678 0.52193,-7.08998 -1.10921,-2.07258 -1.13054,-2.06965 -3.84102,0.52715 -1.97799,1.89504 -3.34522,5.00864 -4.98456,11.3514 -2.80461,10.85127 -5.76742,15.30015 -14.64457,21.98987 -5.32126,4.01004 -7.79288,5.24908 -10.46636,5.24683 -1.925,-0.002 -6.73692,0.95644 -10.69316,2.12902 -3.95624,1.17258 -7.97363,1.83247 -8.92754,1.46643 -3.28478,-1.26049 0.76925,-3.49127 11.11341,-6.11528 5.45193,-1.383 10.26451,-3.06854 10.69463,-3.74566 1.20135,-1.89122 0.95884,-4.36491 -0.55072,-5.61774 -0.74986,-0.62233 -1.66284,-3.67936 -2.02883,-6.7934 -0.366,-3.11404 -1.50406,-7.55772 -2.52903,-9.87484 -1.62163,-3.66596 -2.54092,-4.43791 -7.0806,-5.94575 -10.32143,-3.42823 -16.92621,-1.10441 -23.24611,8.1789 -2.26201,3.32267 -4.74478,4.40315 -4.76045,2.07171 -0.005,-0.6875 0.77115,-4.29174 1.72392,-8.00942 l 1.73231,-6.75942 -3.47392,-3.44984 c -4.16946,-4.14056 -10.09819,-5.31617 -22.67972,-4.49714 -6.84303,0.44546 -8.62835,0.93112 -10.75,2.92431 -2.91263,2.73627 -3.17784,4.27074 -1.04419,6.04151 2.0434,1.69587 1.88616,4.27774 -0.34537,5.67136 -3.58176,2.23684 -4.49048,8.90307 -2.99464,21.968 1.35131,11.80253 1.37139,11.86219 4.09899,12.17706 3.55217,0.41006 3.47078,2.09786 -0.25898,5.37067 -4.13716,3.6303 -3.98096,7.14465 0.5,11.24904 4.27837,3.91884 4.4376,5.56387 0.53854,5.56387 -2.62236,0 -3.08825,0.4709 -4.06887,4.11262 -2.0007,7.43004 1.80451,20.16627 7.16562,23.98372 4.4497,3.16846 3.73913,4.90366 -2.00806,4.90366 l -4.87277,0 -0.45366,4.75 c -0.24952,2.6125 -0.34451,21.175 -0.21111,41.25 0.1334,20.075 -1.32937,35.75927 -1.32844,33.78651 l 0.002,-4.28651 0.0959,2.21349 c 0.38744,8.94496 -2.17449,-7.30258 -2.73955,-35.71349 -0.34457,-17.325 -0.89635,-33.75 -1.22618,-36.5 l -0.59968,-5 -4.38983,0.35013 c -3.4422,0.27455 -4.53263,-0.022 -5.05136,-1.37379 -0.41675,-1.08604 -0.0565,-2.0625 0.97356,-2.63897 0.89931,-0.50327 2.88133,-3.03507 4.4045,-5.62621 2.45043,-4.16856 2.76939,-5.70934 2.76939,-13.37783 0,-4.76666 -0.35433,-9.02099 -0.78739,-9.45406 -0.43307,-0.43306 -2.00196,-0.80806 -3.48642,-0.83333 -3.75297,-0.0639 -3.88978,-2.62556 -0.26897,-5.03614 5.24579,-3.49242 4.69294,-11.21651 -0.93058,-13.00134 -2.95377,-0.9375 -2.47804,-3.16818 0.81618,-3.82702 l 2.84281,-0.56857 0.62712,-12.3734 c 0.7039,-13.88846 -0.14994,-18.67964 -3.84719,-21.5879 -2.84535,-2.23816 -3.06486,-3.4093 -0.96556,-5.15157 2.25837,-1.87428 1.81005,-4.61096 -1.13486,-6.92742 -2.2521,-1.7715 -4.03163,-2.07177 -12.25,-2.067 -10.93326,0.006 -16.56894,1.23092 -19.9745,4.34027 -3.85356,3.5184 -4.10991,5.5668 -1.57568,12.59083 1.27728,3.54017 2.09613,6.80267 1.81967,7.25 -1.02842,1.66402 -2.9517,0.70115 -5.20264,-2.60464 -5.76939,-8.47312 -15.12423,-10.91882 -24.2201,-6.33204 -5.40586,2.72601 -7.08699,5.90558 -7.91841,14.97623 -0.34023,3.7119 -1.1642,7.29449 -1.83104,7.96133 -3.51666,3.51666 0.23842,7.24359 8.28756,8.22545 6.6212,0.80767 12.54631,2.2333 13.58062,3.26761 0.45986,0.45986 0.44996,1.46088 -0.022,2.2245 -0.72672,1.17585 -1.86172,1.1363 -7.41388,-0.25836 -3.60568,-0.90572 -8.48831,-1.6479 -10.85028,-1.6493 -3.45877,-0.002 -5.67352,-0.92639 -11.38098,-4.75 -10.01229,-6.70753 -12.69144,-10.18832 -16.27282,-21.14188 C 188.9097,136.22374 186.86912,133 183.84501,133 c -2.27005,0 -2.39692,2.88445 -0.37385,8.5 1.94555,5.40037 1.87237,6.5 -0.43262,6.5 -2.13196,0 -3.70238,-4.40431 -5.48707,-15.38876 -0.74885,-4.609 -5.19683,-10.43287 -9.30881,-12.18829 -2.69772,-1.15167 -5.68646,-1.4668 -10.70475,-1.1287 -6.59543,0.44436 -7.12943,0.66838 -10.13953,4.25375 -1.74759,2.08158 -4.65387,6.29734 -6.4584,9.36835 -7.42796,12.64114 -13.53534,22.00617 -19.07609,29.25119 -3.22514,4.21715 -5.86389,8.402 -5.86389,9.29966 0,0.89767 0.69339,2.97299 1.54087,4.61183 1.50331,2.90708 1.26831,4.92097 -0.57421,4.92097 -0.50341,0 -1.61341,-1.35 -2.46666,-3 -0.85325,-1.65 -1.92867,-3 -2.38982,-3 -1.32517,0 -3.86438,7.96002 -4.5118,14.14376 -0.80217,7.66192 0.0776,11.38757 3.00383,12.72086 C 113.51541,203.19196 113.74479,205 111,205 c -1.74754,0 -1.9985,0.66271 -1.98813,5.25 0.007,2.8875 0.64939,7.64507 1.42858,10.57238 1.51232,5.68158 8.5983,18.84837 12.28377,22.82505 2.64541,2.85445 5.98309,2.73102 14.0628,-0.52006 6.45167,-2.596 11.03436,-2.73088 12.82093,-0.37737 2.68068,3.53134 1.15791,7.08266 -1.60795,3.75 -0.68469,-0.825 -1.90743,-1.5 -2.71721,-1.5 -1.1878,0 -15.23787,3.89294 -15.98774,4.42983 -0.11272,0.0807 0.43003,1.92951 1.20611,4.10845 0.77608,2.17895 1.43081,7.3072 1.45495,11.39612 0.0519,8.7936 2.27761,17.42675 5.53788,21.48067 1.89321,2.35406 3.06421,2.888 6.08471,2.77445 2.05719,-0.0773 4.68105,-0.97131 5.83082,-1.98661 C 153.60289,283.49996 162.04396,278 163.5337,278 c 2.50899,0 2.70243,2.48548 0.48583,6.24233 l -2.08355,3.53135 4.78201,4.25309 c 2.63011,2.3392 7.21525,5.38049 10.1892,6.75843 6.80017,3.15076 6.63697,3.34296 11.59186,-13.65166 3.0912,-10.60242 4.37498,-13.52062 7.46503,-16.96898 4.08806,-4.56211 6.03592,-5.25626 6.03592,-2.15099 0,1.10746 0.5625,2.92572 1.25,4.04058 1.11826,1.81338 0.80996,2.39381 -2.92509,5.50715 -2.65907,2.21645 -4.42578,4.65272 -4.86548,6.70941 -0.37971,1.77611 -1.06788,3.70066 -1.52927,4.27677 -1.50961,1.88496 -2.58167,11.85656 -1.6624,15.46252 1.42046,5.57192 5.32917,8.99 10.28044,8.99 l 4.17402,0 0.55455,6.11566 c 0.305,3.36361 1.00734,6.56845 1.56074,7.12185 1.11288,1.11288 0.45495,3.76249 -0.93427,3.76249 -2.25167,0 -14.84463,-9.16859 -16.69142,-12.15257 -3.31915,-5.36298 -7.39648,-8.66061 -11.97665,-9.68636 -2.46352,-0.55173 -5.86079,-2.39699 -8.04348,-4.36892 -5.48838,-4.95843 -11.71607,-7.57694 -19.86545,-8.35268 -6.81388,-0.64861 -7.30299,-0.55363 -9.75,1.89338 -2.00877,2.00877 -2.57624,3.57239 -2.57624,7.09864 0,4.88756 1.65495,6.73343 7.27638,8.11582 1.52701,0.37551 3.29055,1.64348 3.91898,2.81772 0.62843,1.17423 1.00053,2.13497 0.82689,2.13497 -0.17365,0 -0.0211,0.92837 0.33906,2.06304 0.36014,1.13468 3.51137,4.16049 7.00275,6.72404 8.02571,5.89289 9.42106,7.47441 7.30949,8.2847 -0.87114,0.33428 -4.23349,-0.97631 -7.6662,-2.98817 C 154.64437,327.61262 151.46696,326 150.94642,326 c -1.43128,0 -1.13377,5.50618 0.49796,9.21607 0.79441,1.80616 1.71951,4.99653 2.05578,7.08971 0.76949,4.78986 3.88664,8.1033 6.84229,7.27313 1.18665,-0.3333 4.07005,-0.88607 6.40755,-1.22838 3.50309,-0.513 4.25,-0.33844 4.25,0.99322 0,0.88858 -1.8,2.53389 -4,3.65625 -2.2,1.12236 -4,2.75026 -4,3.61756 0,0.86731 2.31638,3.67066 5.14751,6.22968 9.32103,8.42513 12.46659,9.71696 15.96074,6.5548 2.36465,-2.13999 3.89175,-0.98852 3.89175,2.93447 0,1.77016 0.69589,4.212 1.54642,5.4263 1.85474,2.64801 14.25713,6.69906 18.20112,5.94512 1.46853,-0.28073 5.45909,-0.0762 8.86792,0.45451 6.81663,1.06125 14.08528,-0.21901 15.01617,-2.64486 0.29075,-0.75768 -0.2337,-2.98409 -1.16544,-4.94759 C 228.90975,373.29004 228.42158,373 224.45749,373 c -5.12577,0 -9.12519,-2.82886 -5.83,-4.12365 1.02988,-0.40468 2.83687,-0.76741 4.01552,-0.80606 1.17866,-0.0387 2.40203,-0.74529 2.71862,-1.57029 0.68645,-1.78887 3.63837,-2.02218 3.63837,-0.28756 0,0.66683 1.14703,2.12933 2.54896,3.25 2.05765,1.64482 2.6585,3.19405 3.11728,8.03756 0.9627,10.16359 3.03336,11.71142 14.60884,10.92018 3.17629,-0.21712 7.10772,-1.08389 8.7365,-1.92617 z M 117.80975,181.08129 c -78.539834,279.27914 -39.269918,139.63957 0,0 z m 360.5806,-11.5089 c -0.60695,-1.58171 0.96141,-5.92653 2.3793,-5.05023 1.48799,0.91963 -3.7174,10.37951 -5.70391,11.44266 -2.51158,1.34415 3.99683,-4.64067 3.32461,-6.39243 z M 204.30414,318.23086 C 203.7503,314.10169 203.64571,314 199.95236,314 c -3.1888,0 -4.25909,-0.59947 -6.80146,-3.80947 -1.65944,-2.09521 -3.33447,-5.13271 -3.72229,-6.75 -1.05999,-4.42037 -1.50233,-4.78029 -3.08972,-2.51397 -0.80277,1.14612 -2.65684,2.12635 -4.14559,2.19175 l -2.6933,0.11832 2.5,0.63168 c 4.10017,1.03601 7.86153,4.11187 10.25104,8.3828 1.81812,3.24967 11.44985,11.38134 12.3796,10.45158 0.13254,-0.13253 -0.0144,-2.14486 -0.3265,-4.47183 z m 204.24308,-9.72123 c 1.42678,-2.43461 4.02484,-5.68275 5.77346,-7.2181 L 417.5,298.5 l -2.16267,-2.31284 c -2.36257,-2.52663 -2.29127,-2.60023 -3.70307,3.82232 -0.94174,4.28415 -6.95003,9.99052 -10.51913,9.99052 -2.55979,0 -3.11756,0.40111 -3.12878,2.25 -0.008,1.2375 -0.30341,3.33289 -0.65754,4.65643 -0.63338,2.36715 -0.56825,2.35439 3.99019,-0.7819 2.54875,-1.75358 5.80145,-5.18029 7.22822,-7.6149 z M 300.68311,296.8125 c -0.31922,-0.79773 -0.55618,-0.56078 -0.60416,0.60417 -0.0434,1.05416 0.19293,1.64479 0.52522,1.3125 0.33229,-0.33229 0.36781,-1.1948 0.0789,-1.91667 z m 123.80981,0.19895 c 0.35034,-0.56686 -0.0511,-0.7345 -0.94098,-0.39301 -1.73242,0.66479 -2.04939,1.38156 -0.61096,1.38156 0.51754,0 1.21592,-0.44485 1.55194,-0.98855 z m -263.48363,-6.50156 c -2.03228,-2.16327 -2.18542,-2.82791 -1.16672,-5.06371 0.92984,-2.04079 0.91225,-2.42635 -0.085,-1.86236 -3.19354,1.80613 -7.75759,5.61093 -7.75759,6.46707 0,0.52201 1.4625,0.98074 3.25,1.0194 1.7875,0.0387 4.15,0.45702 5.25,0.92971 3.0095,1.29323 3.04007,1.20379 0.50929,-1.49011 z M 448,283.81023 c 2.23249,-0.28252 1.82207,-0.78102 -3.83552,-4.65864 -5.6581,-3.87797 -6.14662,-4.05397 -4.56886,-1.646 1.41372,2.15762 1.55686,3.25211 0.71646,5.47858 -1.03922,2.7532 -1.01757,2.77373 2.06886,1.96237 1.71548,-0.45097 4.24406,-0.96231 5.61906,-1.13631 z M 197.94021,273.70377 c 1.82511,-1.53574 2.52577,-2.87536 2.11555,-4.04482 -0.5313,-1.51462 -0.8857,-1.37464 -2.64871,1.04623 -4.33265,5.94938 -4.15579,6.94408 0.53316,2.99859 z M 405.3196,270.25 c -0.33969,-0.9625 -1.53353,-2.76732 -2.65298,-4.0107 -1.52518,-1.69404 -2.23673,-1.9447 -2.83873,-1 -0.52288,0.82053 0.32707,2.21145 2.43437,3.9838 3.86358,3.24946 3.83882,3.24114 3.05734,1.0269 z m -105.5962,-12.5 c -0.22183,-1.7875 -0.40333,-0.325 -0.40333,3.25 0,3.575 0.1815,5.0375 0.40333,3.25 0.22182,-1.7875 0.22182,-4.7125 0,-6.5 z m -0.006,-12.48625 c -0.22985,-1.52006 -0.42406,-0.51375 -0.43157,2.23625 -0.007,2.75 0.18056,3.99369 0.41792,2.76375 0.23736,-1.22994 0.24351,-3.47994 0.0136,-5 z m 4.04882,-22.757 2.26641,-0.65194 -2.03745,-2.86133 C 300.66199,214.3122 299,208.19148 299,200.59678 c 0,-4.81246 0.50231,-7.86891 1.53566,-9.34422 1.39674,-1.99414 1.36407,-2.53438 -0.36119,-5.97251 -1.91978,-3.82575 -1.53814,-7.71536 1.08225,-11.03005 0.65371,-0.82692 0.63994,-1.67308 -0.0407,-2.5 -0.56587,-0.6875 -1.29597,-3.3875 -1.62244,-6 -0.32648,-2.6125 -0.85756,-6.851 -1.18019,-9.41889 -0.87465,-6.96156 -2.37961,-3.38669 -2.39809,5.69638 -0.0102,5.00966 -0.51089,8.23504 -1.49693,9.64281 -1.2958,1.85001 -1.29912,2.26678 -0.0265,3.32299 2.56116,2.12557 2.94243,7.60538 0.78373,11.2641 -1.93397,3.27785 -1.93347,3.29534 0.14173,4.90038 1.86059,1.43906 2.08263,2.66261 2.08263,11.47651 0,9.35568 -0.16571,10.13415 -3.20525,15.05802 l -3.20526,5.1923 3.70526,0.37582 c 3.94855,0.40049 5.3763,0.28055 8.97165,-0.75367 z"
     id="path3061"
     inkscape:connector-curvature="0"
     sodipodi:nodetypes="cccsssssssssssssssssssssssssssscsssssscsssssssssssssssssssssssssssssscsssssssssssssssscssssssssscsssssssssscccsscscsssssssccsssssssssscsssssssssssssssssssssssssssssssssssssssssssssssssssssssssssssssssssssssssscscsssscssssssscssssssssscscssssssssssssscssscssscsscsscsssscsssscssssssssscscssssssssssssssssssscsssssscssscssscssssssssssscsssssssssssscssssssssssssssssssssscssssssccsssssssssscsscssscssscsssccsccscsscssscsccsssssssssssssssssssccscccccssssssssscsssscscc" />
</svg>
