<?xml version="1.0" encoding="utf-8"?>
<!-- Generator: Adobe Illustrator 12.0.1, SVG Export Plug-In . SVG Version: 6.00 Build 51448)  -->
<!DOCTYPE svg PUBLIC "-//W3C//DTD SVG 1.1//EN" "http://www.w3.org/Graphics/SVG/1.1/DTD/svg11.dtd" [
	<!ENTITY ns_svg "http://www.w3.org/2000/svg">
	<!ENTITY ns_xlink "http://www.w3.org/1999/xlink">
]>
<svg  version="1.1" id="DuTrack_1_" xmlns="&ns_svg;" xmlns:xlink="&ns_xlink;" width="324" height="90" viewBox="0 0 324 90"
	 overflow="visible" enable-background="new 0 0 324 90" xml:space="preserve">
<rect x="80.5" y="68.999" fill="#06246F" width="7.5" height="13.501"/>
<rect x="41.5" y="69.416" fill="#06246F" width="7.5" height="13.084"/>
<rect x="73.5" y="35.5" fill="none" width="238.5" height="71"/>
<text transform="matrix(1 0 0 1 100.1514 68.3496)" fill="#06246F" font-family="'Colaborate-Bold'" font-size="50">DuTrack</text>
<path display="none" fill="#FFFFFF" d="M183,41v0.334c0,3.021-1.116,5.781-2.959,7.891c-2.2,2.519-5.435,4.109-9.041,4.109h-14.333
	c-3.566,0-6.769-1.556-8.967-4.025c-1.887-2.12-3.033-4.914-3.033-7.975V39c0-3.067,1.15-5.865,3.043-7.986
	c2.198-2.463,5.396-4.014,8.957-4.014H171c3.313,0,6.312,1.342,8.483,3.513C181.656,32.685,183,35.686,183,39V41z"/>
<path fill="#FFFFFF" d="M92.25,46.875"/>
<path fill="#FFFFFF" d="M77.167,29.75"/>
<path fill="#FFFFFF" d="M75.708,27.75"/>
<path fill="#FFFFFF" d="M74.583,55.167"/>
<path fill="#06246F" d="M79.75,52c0-3.313-2.519-6-5.625-6l0,0c-3.106,0-5.625,2.687-5.625,6v4c0,3.313,2.519,6,5.625,6l0,0
	c3.106,0,5.625-2.687,5.625-6V52z"/>
<path fill="#06246F" d="M79,21.75H51c-6.627,0-12,5.373-12,12v28c0,6.627,5.373,12,12,12h28c6.627,0,12-5.373,12-12v-28
	C91,27.123,85.627,21.75,79,21.75z M85.106,68.75H44.894c-0.77,0-1.394-0.588-1.394-1.313s0.624-1.313,1.394-1.313h40.213
	c0.77,0,1.394,0.588,1.394,1.313S85.876,68.75,85.106,68.75z M47.625,62.375c0-1.381,1.119-2.5,2.5-2.5s2.5,1.119,2.5,2.5
	s-1.119,2.5-2.5,2.5S47.625,63.756,47.625,62.375z M76.875,62.375c0-1.381,1.119-2.5,2.5-2.5s2.5,1.119,2.5,2.5s-1.119,2.5-2.5,2.5
	S76.875,63.756,76.875,62.375z M86.5,45.375c0,6.627-5.42,12-12.106,12H55.606c-6.686,0-12.106-5.373-12.106-12v-7
	c0-6.627,5.42-12,12.106-12h18.788c6.686,0,12.106,5.373,12.106,12V45.375z"/>
<ellipse fill="#FFFFFF" cx="74.083" cy="43.625" rx="3.833" ry="3.625"/>
<circle fill="#06246F" cx="74.125" cy="42.708" r="3.875"/>
<path fill="none" stroke="#003366" stroke-width="4" d="M84.438,19.248c0.125,0.001,0.25,0.004,0.375,0.01
	c0.318,0.015,0.631,0.046,0.94,0.092c4.52,0.672,7.987,4.568,7.987,9.275"/>
<path fill="none" stroke="#003366" stroke-width="4" d="M84.366,13.167c0.206,0.002,0.412,0.007,0.616,0.016
	c0.523,0.025,1.039,0.076,1.546,0.151c7.431,1.105,13.132,7.511,13.132,15.249"/>
<path fill="none" stroke="#003366" stroke-width="4" d="M84.371,7.165c0.288,0.002,0.574,0.01,0.858,0.023
	c0.728,0.035,1.446,0.105,2.151,0.209c10.348,1.539,18.286,10.459,18.286,21.233"/>
</svg>
